<svg xmlns="http://www.w3.org/2000/svg" viewBox="0 0 925.62 1059.69"><defs><style>.cls-1{fill:#dc143c;}</style></defs><title>Logo-Pribadi</title><g id="_1" data-name="1"><path class="cls-1" d="M470.82,121.48,513.35,79a34.25,34.25,0,0,1,48.43,0l43.06,43a12.71,12.71,0,0,0,18,0l54.14-54.15a10.1,10.1,0,0,0-4-16.74L555.09,12.56a48.5,48.5,0,0,0-30.18,0L404.15,52a10.1,10.1,0,0,0-4,16.74l52.72,52.72A12.69,12.69,0,0,0,470.82,121.48Z" transform="translate(-77.19 -10.15)"/><path class="cls-1" d="M986.52,153.54l-159-51.95-25.23-8.24a33.29,33.29,0,0,0-34.09,8.31l-91,92.62L622.72,250a12.7,12.7,0,0,1-18.06.1l-42.8-42.8a34.26,34.26,0,0,0-48.45,0l-42.9,42.9a12.7,12.7,0,0,1-18,0L397.31,195l.32-.32-91.46-91.46a33.31,33.31,0,0,0-33.89-8.1l-19.84,6.48-159,51.95c-9.1,3-16.28,7.8-16.28,17.33v73.45a48.58,48.58,0,0,0,48.59,48.59H332.33a18.87,18.87,0,0,1,18.87,18.87v48.91a29.4,29.4,0,0,1-29.4,29.4H188.21a48.59,48.59,0,0,0-48.59,48.59v27.06c0,11.89,9.06,21.52,20.22,21.52H681.25a48.58,48.58,0,0,0,48.59-48.58V307.83a13.65,13.65,0,0,1,13.63-13.65H827v0h127.2a48.59,48.59,0,0,0,48.59-48.59V170.87C1000.57,160.4,996.62,157.31,986.52,153.54Z" transform="translate(-77.19 -10.15)"/><path class="cls-1" d="M254,633a48.58,48.58,0,0,0-48.59-48.59h-108c-11.17,0-20.22,9.46-20.22,21.12V633a48.59,48.59,0,0,0,48.59,48.59h79.65A48.59,48.59,0,0,0,254,633Z" transform="translate(-77.19 -10.15)"/><path class="cls-1" d="M827,435.5c0,28.59,25.89,51.76,57.83,51.76h97.74c11.17,0,20.22-8.62,20.22-19.27V435.5c0-28.59-25.89-51.77-57.83-51.77H884.85c-31.94,0-57.83,23.18-57.83,51.77Z" transform="translate(-77.19 -10.15)"/><circle class="cls-1" cx="462.81" cy="922.6" r="83.82"/><path class="cls-1" d="M856.49,630.84C845.61,620,827,627.67,827,643.05V762.79a17.27,17.27,0,0,1-17.27,17.27H747.1a17.27,17.27,0,0,1-17.26-17.27V634a49.59,49.59,0,0,0-49.59-49.59H400.79A49.59,49.59,0,0,0,351.2,634v127.5a17.27,17.27,0,0,1-17.27,17.26H94.45a17.27,17.27,0,0,0-17.26,17.27h0c0,145,109.16,264.61,245.88,273.71a36.61,36.61,0,0,0,26.32-8.87c1.12-1,2.23-2,3.41-2.84l54.81-41.34a23.21,23.21,0,0,0,7.21-28,137.09,137.09,0,1,1,250.36,0,23.17,23.17,0,0,0,7.22,28l54.8,41.34c1.18.89,2.29,1.87,3.41,2.84a36.61,36.61,0,0,0,26.32,8.87c136.72-9.1,245.88-128.74,245.88-273.71h0a45.63,45.63,0,0,0-13.36-32.26Z" transform="translate(-77.19 -10.15)"/></g></svg>